<svg xmlns="http://www.w3.org/2000/svg" version="1.0" viewBox="0 0 558 558">
    <path d="M295.5 40.7c-1 2.7-3.2 7.5-4.9 10.7-3.7 7.1-9.8 11.5-21.9 15.5-4.4 1.5-8.4 3.4-8.8 4.2-.4.8-1.4 5.7-2.4 10.9-2.2 12.8-5.2 21.8-23 69.5-32.5 87.1-57 149.2-86 218-32.6 77.2-34.2 80.4-46.4 92.5-10.9 10.9-19.7 15.7-44.3 24.4-17.4 6.2-22.6 15.2-11.7 20.2 5.5 2.4 23.3 2.6 52.4.4 13.9-1 35.1-1.5 69.5-1.5 45.5 0 49.8-.1 52.8-1.8 2.6-1.4 3.2-2.3 3.2-5.2 0-2.7-.7-3.9-3.2-5.8-3.8-2.8-5.7-3.5-19.8-7.7-13.5-4.1-21.1-8.1-28-15-10.1-9.9-12.6-19.4-9.1-34 4.8-20.4 23.4-82.1 27.6-91.6 1.2-2.8 3.5-6 5-7.2l2.8-2.2h70.9c78.9 0 76.6-.2 79.4 6.5 2.4 5.8 14.2 47.6 19.4 68.9 8.7 35.3 9.6 46.5 4.5 55.2-4.6 7.9-15.6 14-31.4 17.4-15.4 3.4-21.1 5.2-25.2 8.2-3.2 2.3-3.9 3.4-3.9 6.3 0 4 2.3 5.9 8.4 7.1 2.1.4 29.6.8 61 .9 35.8.1 62.3.6 71.1 1.4 7.6.7 24.1 1.3 36.5 1.4 19.9.2 22.9 0 25.8-1.6 4.1-2.2 4.3-6.2.6-10.7-3.8-4.5-8.4-6.5-24-10.3-31.5-7.7-45.7-20.3-58.9-52.2-4.4-10.5-3.3-7.5-26-73.5-33.8-98.5-77.6-230.6-99.5-300-3.4-10.7-6.5-20.5-7-21.8-1.5-3.5-3.6-2.6-5.5 2.5zm-16.1 88.5c5.5 13.3 55.9 173.3 56 177.8l.1 4.4-5.5.9c-3 .4-31.4.7-63.1.5-64-.3-61.6-.1-60.4-6.7.6-3.1 63.6-173.8 66.6-180.4 1.9-4.2 3.4-3.3 6.3 3.5z"/>
    <style>
        path { fill: #dc0000; }
    </style>
</svg>
